<svg id="Layer_1" data-name="Layer 1" xmlns="http://www.w3.org/2000/svg" viewBox="0 0 201 194">
  <title>graph</title>
  <g>
    <rect x="0.5" y="0.5" width="6" height="193"/>
    <path d="M33,37V229H28V37h5m1-1H27V230h7V36Z" transform="translate(-27 -36)"/>
  </g>
  <g>
    <rect x="7.5" y="187.5" width="193" height="6"/>
    <path d="M227,224v5H35v-5H227m1-1H34v7H228v-7Z" transform="translate(-27 -36)"/>
  </g>
  <g>
    <rect x="23.5" y="122.5" width="39" height="64"/>
    <path d="M89,159v63H51V159H89m1-1H50v65H90V158Z" transform="translate(-27 -36)"/>
  </g>
  <g>
    <rect x="83.5" y="31.5" width="39" height="155"/>
    <path d="M149,68V222H111V68h38m1-1H110V223h40V67Z" transform="translate(-27 -36)"/>
  </g>
  <g>
    <rect x="143.5" y="78.5" width="39" height="108"/>
    <path d="M209,115V222H171V115h38m1-1H170V223h40V114Z" transform="translate(-27 -36)"/>
  </g>
</svg>
