<svg id="Layer_1" data-name="Layer 1" xmlns="http://www.w3.org/2000/svg" viewBox="0 0 100 159">
  <title>user</title>
  <g>
    <path d="M87,248.5A11.51,11.51,0,0,1,75.5,237V181A11.51,11.51,0,0,1,87,169.5h76A11.51,11.51,0,0,1,174.5,181v56A11.51,11.51,0,0,1,163,248.5Zm38-89A34.5,34.5,0,1,1,159.5,125,34.54,34.54,0,0,1,125,159.5Z" transform="translate(-75 -90)" fill="#fff"/>
    <path d="M125,91a34,34,0,1,1-34,34,34,34,0,0,1,34-34m38,79a11,11,0,0,1,11,11v56a11,11,0,0,1-11,11H87a11,11,0,0,1-11-11V181a11,11,0,0,1,11-11h76M125,90a35,35,0,1,0,35,35,35,35,0,0,0-35-35Zm38,79H87a12,12,0,0,0-12,12v56a12,12,0,0,0,12,12h76a12,12,0,0,0,12-12V181a12,12,0,0,0-12-12Z" transform="translate(-75 -90)"/>
  </g>
</svg>
